<svg width="62" height="62" viewBox="0 0 62 62" fill="none" xmlns="http://www.w3.org/2000/svg">
<path d="M31.0646 39.3958L39.1375 31.3229L37.7812 29.9667L32.0333 35.65V22.6042H30.0312V35.65L24.2833 29.9667L22.9271 31.3229L31.0646 39.3958ZM31 54.25C27.8139 54.25 24.8108 53.6365 21.9906 52.4094C19.1705 51.1823 16.7056 49.5139 14.5958 47.4042C12.4861 45.2944 10.8177 42.8403 9.59063 40.0417C8.36354 37.2431 7.75 34.2292 7.75 31C7.75 27.7708 8.36354 24.7462 9.59063 21.926C10.8177 19.1059 12.4861 16.6517 14.5958 14.5635C16.7056 12.4753 19.1597 10.8177 21.9583 9.59063C24.7569 8.36354 27.7708 7.75 31 7.75C34.2292 7.75 37.2538 8.36354 40.074 9.59063C42.8941 10.8177 45.3483 12.4753 47.4365 14.5635C49.5247 16.6517 51.1823 19.1059 52.4094 21.926C53.6365 24.7462 54.25 27.7708 54.25 31C54.25 34.1861 53.6365 37.1892 52.4094 40.0094C51.1823 42.8295 49.5247 45.2944 47.4365 47.4042C45.3483 49.5139 42.8941 51.1823 40.074 52.4094C37.2538 53.6365 34.2292 54.25 31 54.25ZM31 52.2479C36.8986 52.2479 41.9146 50.1813 46.0479 46.0479C50.1813 41.9146 52.2479 36.8986 52.2479 31C52.2479 25.1014 50.1813 20.0854 46.0479 15.9521C41.9146 11.8188 36.8986 9.75208 31 9.75208C25.1014 9.75208 20.0854 11.8188 15.9521 15.9521C11.8188 20.0854 9.75208 25.1014 9.75208 31C9.75208 36.8986 11.8188 41.9146 15.9521 46.0479C20.0854 50.1813 25.1014 52.2479 31 52.2479Z" fill="white"/>
</svg>
