<svg width="68" height="68" viewBox="0 0 68 68" fill="none" xmlns="http://www.w3.org/2000/svg">
<path d="M1.41675 50.4333V47.4584C1.41675 45.7111 2.36119 44.2827 4.25008 43.1729C6.13897 42.0632 8.57091 41.5083 11.5459 41.5083C12.1126 41.5083 12.6556 41.532 13.1751 41.5792C13.6945 41.6264 14.1667 41.6736 14.5917 41.7209C14.3084 42.4764 14.0723 43.232 13.8834 43.9875C13.6945 44.7431 13.6001 45.5459 13.6001 46.3959V50.4333H1.41675ZM18.4167 50.4333V46.5375C18.4167 43.7986 19.857 41.6146 22.7376 39.9854C25.6181 38.3563 29.3723 37.5417 34.0001 37.5417C38.6751 37.5417 42.4411 38.3563 45.298 39.9854C48.1549 41.6146 49.5834 43.7986 49.5834 46.5375V50.4333H18.4167ZM54.4001 50.4333V46.3959C54.4001 45.5459 54.3174 44.7431 54.1522 43.9875C53.9869 43.232 53.739 42.4764 53.4084 41.7209C53.8806 41.6736 54.3765 41.6264 54.8959 41.5792C55.4154 41.532 55.9348 41.5083 56.4542 41.5083C59.5237 41.5083 61.9792 42.0632 63.8209 43.1729C65.6626 44.2827 66.5834 45.7111 66.5834 47.4584V50.4333H54.4001ZM34.0001 40.7292C30.2695 40.7292 27.2591 41.2722 24.9688 42.3583C22.6786 43.4445 21.557 44.8611 21.6042 46.6084V47.175H46.3959V46.5375C46.4431 44.8375 45.3334 43.4445 43.0667 42.3583C40.8001 41.2722 37.7779 40.7292 34.0001 40.7292ZM11.5459 39.3125C10.3654 39.3125 9.35008 38.8875 8.50008 38.0375C7.65008 37.1875 7.22508 36.1486 7.22508 34.9208C7.22508 33.7403 7.65008 32.7368 8.50008 31.9104C9.35008 31.084 10.3654 30.6708 11.5459 30.6708C12.7265 30.6708 13.7417 31.084 14.5917 31.9104C15.4417 32.7368 15.8667 33.7639 15.8667 34.9917C15.8667 36.1722 15.4417 37.1875 14.5917 38.0375C13.7417 38.8875 12.7265 39.3125 11.5459 39.3125ZM56.4542 39.3125C55.2737 39.3125 54.2584 38.8875 53.4084 38.0375C52.5584 37.1875 52.1334 36.1486 52.1334 34.9208C52.1334 33.7403 52.5584 32.7368 53.4084 31.9104C54.2584 31.084 55.2737 30.6708 56.4542 30.6708C57.682 30.6708 58.7091 31.084 59.5355 31.9104C60.3619 32.7368 60.7751 33.7639 60.7751 34.9917C60.7751 36.1722 60.3619 37.1875 59.5355 38.0375C58.7091 38.8875 57.682 39.3125 56.4542 39.3125ZM34.0001 35.4167C31.9695 35.4167 30.2341 34.6965 28.7938 33.2563C27.3536 31.816 26.6334 30.0806 26.6334 28.05C26.6334 25.9722 27.3536 24.225 28.7938 22.8083C30.2341 21.3917 31.9695 20.6833 34.0001 20.6833C36.0779 20.6833 37.8251 21.3917 39.2417 22.8083C40.6584 24.225 41.3667 25.9722 41.3667 28.05C41.3667 30.0806 40.6584 31.816 39.2417 33.2563C37.8251 34.6965 36.0779 35.4167 34.0001 35.4167ZM34.0001 23.9417C32.8667 23.9417 31.8987 24.3313 31.0959 25.1104C30.2931 25.8896 29.8917 26.8695 29.8917 28.05C29.8917 29.1833 30.2813 30.1632 31.0605 30.9896C31.8397 31.816 32.8431 32.2292 34.0709 32.2292C35.2042 32.2292 36.1605 31.8278 36.9397 31.025C37.7188 30.2222 38.1084 29.2306 38.1084 28.05C38.1084 26.8695 37.7188 25.8896 36.9397 25.1104C36.1605 24.3313 35.1806 23.9417 34.0001 23.9417Z" fill="white"/>
</svg>
