<svg width="83" height="83" viewBox="0 0 83 83" fill="none" xmlns="http://www.w3.org/2000/svg">
<path d="M23.4302 23.1709H20.75V11.672C20.75 10.3463 21.2111 9.2223 22.1333 8.30008C23.0555 7.37786 24.1795 6.91675 25.5052 6.91675H57.4947C58.8204 6.91675 59.9444 7.37786 60.8666 8.30008C61.7888 9.2223 62.25 10.3463 62.25 11.672V23.1709H59.5697V17.0324H23.4302V23.1709ZM20.75 59.3105H23.4302V65.9678H59.5697V59.3105H62.25V71.3282C62.25 72.6539 61.7888 73.7779 60.8666 74.7001C59.9444 75.6223 58.8204 76.0834 57.4947 76.0834H25.5052C24.1795 76.0834 23.0555 75.6223 22.1333 74.7001C21.2111 73.7779 20.75 72.6539 20.75 71.3282V59.3105ZM53.2583 54.9011L51.3562 52.9126L62.7687 41.5001L51.3562 30.0876L53.2583 28.099L66.6593 41.5001L53.2583 54.9011ZM29.7416 54.9011L16.3406 41.5001L29.7416 28.099L31.6437 30.0876L20.2312 41.5001L31.6437 52.9126L29.7416 54.9011ZM23.4302 68.648V71.3282C23.4302 71.847 23.6463 72.3225 24.0786 72.7548C24.5109 73.1871 24.9864 73.4032 25.5052 73.4032H57.4947C58.0135 73.4032 58.489 73.1871 58.9213 72.7548C59.3536 72.3225 59.5697 71.847 59.5697 71.3282V68.648H23.4302ZM23.4302 73.4032V68.648V73.4032ZM23.4302 14.3522H59.5697V11.672C59.5697 11.1532 59.3536 10.6777 58.9213 10.2454C58.489 9.8131 58.0135 9.59696 57.4947 9.59696H25.5052C24.9864 9.59696 24.5109 9.8131 24.0786 10.2454C23.6463 10.6777 23.4302 11.1532 23.4302 11.672V14.3522ZM23.4302 9.59696V14.3522V9.59696Z" fill="white"/>
</svg>
