<svg width="82" height="82" viewBox="0 0 82 82" fill="none" xmlns="http://www.w3.org/2000/svg">
<path d="M12.8979 65.6855V26.0522V65.6855ZM14.9479 68.3334C13.6382 68.3334 12.5278 67.8779 11.6167 66.9668C10.7056 66.0556 10.25 64.9452 10.25 63.6355V28.1022C10.25 26.7924 10.7056 25.682 11.6167 24.7709C12.5278 23.8598 13.6382 23.4042 14.9479 23.4042H31.1771V18.3647C31.1771 17.0549 31.6326 15.9445 32.5437 15.0334C33.4549 14.1223 34.5653 13.6667 35.875 13.6667H46.125C47.4347 13.6667 48.5451 14.1223 49.4563 15.0334C50.3674 15.9445 50.8229 17.0549 50.8229 18.3647V23.4042H67.0521C68.3618 23.4042 69.4722 23.8598 70.3833 24.7709C71.2944 25.682 71.75 26.7924 71.75 28.1022V45.1001C71.3514 44.8154 70.9385 44.5449 70.5115 44.2886C70.0844 44.0324 69.6146 43.7904 69.1021 43.5626V28.1022C69.1021 27.5327 68.9028 27.0487 68.5042 26.6501C68.1056 26.2515 67.6215 26.0522 67.0521 26.0522H14.9479C14.3785 26.0522 13.8944 26.2515 13.4958 26.6501C13.0972 27.0487 12.8979 27.5327 12.8979 28.1022V63.6355C12.8979 64.2049 13.0972 64.689 13.4958 65.0876C13.8944 65.4862 14.3785 65.6855 14.9479 65.6855H42.5375C42.6514 66.198 42.7795 66.6678 42.9219 67.0949C43.0642 67.522 43.2208 67.9348 43.3917 68.3334H14.9479ZM33.7396 23.4042H48.2604V18.3647C48.2604 17.7952 48.0611 17.3112 47.6625 16.9126C47.2639 16.514 46.7514 16.3147 46.125 16.3147H35.875C35.2486 16.3147 34.7361 16.514 34.3375 16.9126C33.9389 17.3112 33.7396 17.7952 33.7396 18.3647V23.4042ZM61.5 74.9105C57.7986 74.9105 54.6382 73.6008 52.0188 70.9813C49.3993 68.3619 48.0896 65.2015 48.0896 61.5001C48.0896 57.7987 49.3993 54.6383 52.0188 52.0188C54.6382 49.3994 57.7986 48.0897 61.5 48.0897C65.2014 48.0897 68.3618 49.3994 70.9813 52.0188C73.6007 54.6383 74.9104 57.7987 74.9104 61.5001C74.9104 65.2015 73.6007 68.3619 70.9813 70.9813C68.3618 73.6008 65.2014 74.9105 61.5 74.9105ZM67.3938 69.273L69.2729 67.3938L62.6958 61.1584V51.4209H60.0479V62.098L67.3938 69.273Z" fill="white"/>
</svg>
