<svg width="68" height="68" viewBox="0 0 68 68" fill="none" xmlns="http://www.w3.org/2000/svg">
<path d="M13.1042 52.6291C15.8904 50.0319 19.0424 47.9423 22.5605 46.3604C26.0786 44.7784 29.8917 43.9875 34.0001 43.9875C38.1084 43.9875 41.9216 44.7784 45.4397 46.3604C48.9577 47.9423 52.1098 50.0319 54.8959 52.6291V14.025C54.8959 13.7888 54.8015 13.5763 54.6126 13.3875C54.4237 13.1986 54.2112 13.1041 53.9751 13.1041H14.0251C13.789 13.1041 13.5765 13.1986 13.3876 13.3875C13.1987 13.5763 13.1042 13.7888 13.1042 14.025V52.6291ZM34.0709 37.9666C36.6209 37.9666 38.7813 37.0812 40.5522 35.3104C42.323 33.5395 43.2084 31.3791 43.2084 28.8291C43.2084 26.2791 42.323 24.1187 40.5522 22.3479C38.7813 20.577 36.6209 19.6916 34.0709 19.6916C31.5209 19.6916 29.3723 20.577 27.6251 22.3479C25.8779 24.1187 25.0042 26.2791 25.0042 28.8291C25.0042 31.3791 25.8779 33.5395 27.6251 35.3104C29.3723 37.0812 31.5209 37.9666 34.0709 37.9666ZM14.0251 58.0833C12.8917 58.0833 11.9237 57.6819 11.1209 56.8791C10.3181 56.0764 9.91675 55.1083 9.91675 53.975V14.025C9.91675 12.8916 10.3181 11.9236 11.1209 11.1208C11.9237 10.318 12.8917 9.91663 14.0251 9.91663H53.9751C55.1084 9.91663 56.0765 10.318 56.8793 11.1208C57.682 11.9236 58.0834 12.8916 58.0834 14.025V53.975C58.0834 55.1083 57.682 56.0764 56.8793 56.8791C56.0765 57.6819 55.1084 58.0833 53.9751 58.0833H14.0251ZM15.9376 54.8958H52.0626V54.3291C49.4181 51.968 46.573 50.1854 43.5272 48.9812C40.4813 47.777 37.3056 47.175 34.0001 47.175C30.7417 47.175 27.5779 47.7652 24.5084 48.9458C21.439 50.1264 18.582 51.8972 15.9376 54.2583V54.8958ZM34.1418 34.7083C32.489 34.7083 31.0841 34.1416 29.9272 33.0083C28.7702 31.875 28.1917 30.4819 28.1917 28.8291C28.1917 27.1763 28.7702 25.7833 29.9272 24.65C31.0841 23.5166 32.4654 22.95 34.0709 22.95C35.7237 22.95 37.1286 23.5284 38.2855 24.6854C39.4424 25.8423 40.0209 27.2236 40.0209 28.8291C40.0209 30.4819 39.4424 31.875 38.2855 33.0083C37.1286 34.1416 35.7473 34.7083 34.1418 34.7083Z" fill="white"/>
</svg>
