<svg width="25" height="24" viewBox="0 0 25 24" fill="none" xmlns="http://www.w3.org/2000/svg">
    <path d="M22.8901 0H2.4385C1.45881 0 0.666626 0.773438 0.666626 1.72969V22.2656C0.666626 23.2219 1.45881 24 2.4385 24H22.8901C23.8698 24 24.6666 23.2219 24.6666 22.2703V1.72969C24.6666 0.773438 23.8698 0 22.8901 0ZM7.78694 20.4516H4.22444V8.99531H7.78694V20.4516ZM6.00569 7.43438C4.86194 7.43438 3.9385 6.51094 3.9385 5.37187C3.9385 4.23281 4.86194 3.30937 6.00569 3.30937C7.14475 3.30937 8.06819 4.23281 8.06819 5.37187C8.06819 6.50625 7.14475 7.43438 6.00569 7.43438ZM21.1182 20.4516H17.5604V14.8828C17.5604 13.5562 17.5369 11.8453 15.7088 11.8453C13.8573 11.8453 13.576 13.2937 13.576 14.7891V20.4516H10.0229V8.99531H13.4354V10.5609H13.4823C13.9557 9.66094 15.1182 8.70938 16.8479 8.70938C20.4526 8.70938 21.1182 11.0813 21.1182 14.1656V20.4516Z" fill="#DCDFEA"/>
</svg>
