<svg width="82" height="82" viewBox="0 0 82 82" fill="none" xmlns="http://www.w3.org/2000/svg">
<path d="M39.5479 63.8917H42.2812V59.7917C45.0146 59.6778 47.4774 58.8236 49.6698 57.2292C51.8622 55.6347 52.9583 53.3 52.9583 50.225C52.9583 47.6056 52.1753 45.4986 50.6094 43.9042C49.0434 42.3097 46.2389 40.7153 42.1958 39.1208C38.4375 37.6972 36.0031 36.4729 34.8927 35.4479C33.7823 34.4229 33.2271 32.9424 33.2271 31.0063C33.2271 29.184 33.9674 27.6465 35.4479 26.3937C36.9285 25.141 38.8361 24.5146 41.1708 24.5146C42.8792 24.5146 44.3597 24.899 45.6125 25.6677C46.8653 26.4365 47.9472 27.4757 48.8583 28.7854L51.1646 27.7604C50.1965 26.109 48.958 24.7993 47.449 23.8313C45.9399 22.8632 44.2743 22.3222 42.4521 22.2083V18.1083H39.7188V22.2083C36.7007 22.6069 34.4087 23.6319 32.8427 25.2833C31.2767 26.9347 30.4938 28.8424 30.4938 31.0063C30.4938 33.5688 31.291 35.5903 32.8854 37.0708C34.4799 38.5514 37.1278 40.0035 40.8292 41.4271C44.6444 42.9076 47.1785 44.2458 48.4313 45.4417C49.684 46.6375 50.3104 48.2319 50.3104 50.225C50.3104 52.6167 49.3993 54.3962 47.5771 55.5635C45.7549 56.7309 43.7333 57.3146 41.5125 57.3146C39.4625 57.3146 37.5691 56.7309 35.8323 55.5635C34.0955 54.3962 32.7715 52.759 31.8604 50.6521L29.3833 51.6771C30.5222 53.9549 31.9316 55.7059 33.6115 56.9302C35.2913 58.1545 37.2701 59.0514 39.5479 59.6208V63.8917ZM41 71.75C36.7861 71.75 32.8142 70.9385 29.0844 69.3156C25.3545 67.6927 22.0944 65.4861 19.3042 62.6958C16.5139 59.9056 14.3073 56.6455 12.6844 52.9156C11.0615 49.1858 10.25 45.2139 10.25 41C10.25 36.7292 11.0615 32.7288 12.6844 28.999C14.3073 25.2691 16.5139 22.0233 19.3042 19.2615C22.0944 16.4997 25.3545 14.3073 29.0844 12.6844C32.8142 11.0615 36.7861 10.25 41 10.25C45.2708 10.25 49.2712 11.0615 53.001 12.6844C56.7309 14.3073 59.9767 16.4997 62.7385 19.2615C65.5003 22.0233 67.6927 25.2691 69.3156 28.999C70.9385 32.7288 71.75 36.7292 71.75 41C71.75 45.2139 70.9385 49.1858 69.3156 52.9156C67.6927 56.6455 65.5003 59.9056 62.7385 62.6958C59.9767 65.4861 56.7309 67.6927 53.001 69.3156C49.2712 70.9385 45.2708 71.75 41 71.75ZM41 69.1021C48.8014 69.1021 55.4354 66.3688 60.9021 60.9021C66.3688 55.4354 69.1021 48.8014 69.1021 41C69.1021 33.1986 66.3688 26.5646 60.9021 21.0979C55.4354 15.6313 48.8014 12.8979 41 12.8979C33.1986 12.8979 26.5646 15.6313 21.0979 21.0979C15.6313 26.5646 12.8979 33.1986 12.8979 41C12.8979 48.8014 15.6313 55.4354 21.0979 60.9021C26.5646 66.3688 33.1986 69.1021 41 69.1021Z" fill="white"/>
</svg>
