<svg width="54" height="50" viewBox="0 0 54 50" fill="none" xmlns="http://www.w3.org/2000/svg">
    <path d="M20.7667 33.075L37.9083 22.1667L20.7667 11.2583V33.075ZM17.5792 49.0833V43.4167H4.19166C3.05833 43.4167 2.09027 43.0153 1.28749 42.2125C0.484717 41.4097 0.0833282 40.4417 0.0833282 39.3083V5.025C0.0833282 3.89167 0.484717 2.92362 1.28749 2.12084C2.09027 1.31806 3.05833 0.916672 4.19166 0.916672H49.8083C50.9417 0.916672 51.9097 1.31806 52.7125 2.12084C53.5153 2.92362 53.9167 3.89167 53.9167 5.025V39.3083C53.9167 40.4417 53.5153 41.4097 52.7125 42.2125C51.9097 43.0153 50.9417 43.4167 49.8083 43.4167H36.4208V49.0833H17.5792ZM4.19166 40.2292H49.8083C50.0444 40.2292 50.2569 40.1347 50.4458 39.9458C50.6347 39.7569 50.7292 39.5444 50.7292 39.3083V5.025C50.7292 4.78889 50.6347 4.57639 50.4458 4.3875C50.2569 4.19862 50.0444 4.10417 49.8083 4.10417H4.19166C3.95555 4.10417 3.74305 4.19862 3.55416 4.3875C3.36527 4.57639 3.27083 4.78889 3.27083 5.025V39.3083C3.27083 39.5444 3.36527 39.7569 3.55416 39.9458C3.74305 40.1347 3.95555 40.2292 4.19166 40.2292ZM3.27083 40.2292V4.10417V40.2292Z" fill="white"/>
</svg>
