<svg width="50" height="46" viewBox="0 0 50 46" fill="none" xmlns="http://www.w3.org/2000/svg">
    <path d="M7.22056 42.4485C7.06321 43.2619 7.595 44.0488 8.40835 44.2061C9.2217 44.3635 10.0086 43.8317 10.166 43.0184L7.22056 42.4485ZM48.5841 3.7912C49.405 3.68023 49.9806 2.92474 49.8696 2.10378C49.7586 1.28282 49.0032 0.707267 48.1822 0.818242L48.5841 3.7912ZM2.78725 32.3308C2.36038 31.6208 1.43878 31.3913 0.728798 31.8182C0.0188175 32.2451 -0.210688 33.1667 0.216183 33.8766L2.78725 32.3308ZM6.9767 42.2098L5.69117 42.9828L5.69189 42.984L6.9767 42.2098ZM10.5932 43.2606L9.98027 41.8916L9.97903 41.8921L10.5932 43.2606ZM21.5123 40.0155C22.2684 39.677 22.6069 38.7897 22.2684 38.0336C21.9299 37.2774 21.0425 36.9389 20.2864 37.2774L21.5123 40.0155ZM8.69326 42.7334C10.166 43.0184 10.1659 43.0187 10.1658 43.019C10.1658 43.0189 10.1658 43.0192 10.1658 43.0192C10.1658 43.0192 10.1658 43.0189 10.166 43.0184C10.1662 43.0173 10.1666 43.0152 10.1672 43.012C10.1684 43.0058 10.1705 42.9953 10.1735 42.9808C10.1794 42.9517 10.1887 42.9064 10.2016 42.8456C10.2274 42.7239 10.2676 42.5403 10.3233 42.3008C10.4349 41.8216 10.6088 41.1193 10.8551 40.2421C11.3481 38.4863 12.1291 36.0371 13.2773 33.2782C15.5833 27.7375 19.3236 21.0615 25.0838 16.2002L23.1489 13.9076C16.8763 19.2013 12.905 26.3651 10.5076 32.1255C9.30419 35.0171 8.48556 37.5837 7.96684 39.4311C7.7073 40.3554 7.52235 41.1015 7.40152 41.6204C7.34109 41.8799 7.29667 42.0827 7.26695 42.2227C7.25209 42.2927 7.24091 42.3471 7.23323 42.385C7.22939 42.4039 7.22643 42.4187 7.22432 42.4294C7.22327 42.4347 7.22243 42.4389 7.22181 42.4421C7.22149 42.4437 7.22123 42.4451 7.22103 42.4461C7.22092 42.4467 7.22081 42.4473 7.22075 42.4475C7.22065 42.4481 7.22056 42.4485 8.69326 42.7334ZM25.0838 16.2002C36.8964 6.23107 46.2848 4.10201 48.5841 3.7912L48.1822 0.818242C45.3237 1.20465 35.402 3.56662 23.1489 13.9076L25.0838 16.2002ZM0.216183 33.8766L5.69117 42.9828L8.26224 41.4369L2.78725 32.3308L0.216183 33.8766ZM5.69189 42.984C6.83415 44.8798 9.22043 45.5209 11.2074 44.6291L9.97903 41.8921C9.27793 42.2068 8.56611 41.9412 8.26151 41.4357L5.69189 42.984ZM11.2061 44.6297L21.5123 40.0155L20.2864 37.2774L9.98027 41.8916L11.2061 44.6297Z" fill="#EAECF0"/>
</svg>
