<svg width="72" height="50" viewBox="0 0 72 50" fill="none" xmlns="http://www.w3.org/2000/svg">
    <g clip-path="url(#clip0_57_47194)">
        <path d="M72 18.4469V50L53.0699 34.1433V0L72 18.4469Z" fill="#9CC84B"/>
        <path d="M53.0699 34.1433L72 50H17.8181L0 34.1433H53.0699Z" fill="#265946"/>
        <path d="M8.84458 0H53.0699V34.1433H0V8.8241C0 3.95446 3.96364 0 8.84458 0Z" fill="#19336B"/>
        <path d="M13.2729 25.1419L8.48447 9.00122H11.4067L13.9542 17.5243C14.0856 17.9661 14.2097 18.4322 14.3289 18.9274C14.4457 19.4202 14.5625 20.0198 14.6793 20.7262C14.8107 20.0052 14.9397 19.4056 15.0638 18.9274C15.1879 18.4492 15.3168 17.9807 15.4482 17.5243L17.9957 9.00122H21.0932L23.575 17.5243C23.7064 17.9807 23.8354 18.4589 23.9594 18.959C24.0835 19.4591 24.2125 20.0489 24.3439 20.7262C24.4899 19.9761 24.6261 19.362 24.7502 18.8813C24.8743 18.4031 24.996 17.9661 25.1128 17.568L27.7065 9.00122H30.5631L25.6846 25.1419H22.9618L19.5359 13.3951L16.02 25.1419H13.2729Z" fill="#FCFCFD"/>
        <path d="M33.2055 13.5044C33.2055 12.5625 33.4464 11.7298 33.9306 11.0089C34.4148 10.2879 35.0839 9.72469 35.9404 9.31929C36.7969 8.91389 37.7896 8.7124 38.9162 8.7124C39.9989 8.7124 40.9405 8.90418 41.7386 9.2853C42.5367 9.66885 43.1596 10.2126 43.6049 10.919C44.0526 11.6254 44.2886 12.4654 44.3178 13.4364H41.505C41.4758 12.7445 41.2277 12.2032 40.7581 11.8124C40.2885 11.4215 39.6607 11.2273 38.8699 11.2273C38.0061 11.2273 37.3127 11.4215 36.7944 11.8124C36.2737 12.2032 36.0134 12.7373 36.0134 13.4121C36.0134 13.9874 36.1715 14.439 36.4854 14.7691C36.7993 15.0993 37.2957 15.3469 37.9696 15.5095L40.4953 16.0824C41.8725 16.3761 42.8968 16.8811 43.5708 17.5948C44.2448 18.3085 44.5806 19.2698 44.5806 20.4763C44.5806 21.4618 44.3397 22.3309 43.8555 23.081C43.3713 23.8311 42.6876 24.4089 41.8019 24.8143C40.9162 25.2197 39.8797 25.4211 38.6923 25.4211C37.5657 25.4211 36.5754 25.2269 35.7263 24.8361C34.8771 24.4453 34.2128 23.8967 33.7384 23.1902C33.2615 22.4838 33.0108 21.6512 32.9816 20.6947H35.7944C35.809 21.372 36.0766 21.9061 36.5973 22.2945C37.118 22.6853 37.8237 22.8795 38.7166 22.8795C39.6096 22.8795 40.398 22.6853 40.9454 22.2945C41.4953 21.9036 41.7703 21.3866 41.7703 20.7384C41.7703 20.1801 41.6243 19.7334 41.3299 19.4033C41.0379 19.0731 40.561 18.8401 39.9016 18.709L37.3541 18.1361C35.9915 17.8424 34.9598 17.3083 34.2566 16.5364C33.5534 15.7644 33.2031 14.7521 33.2031 13.4995L33.2055 13.5044Z" fill="#FCFCFD"/>
    </g>
    <defs>
        <clipPath id="clip0_57_47194">
            <rect width="72" height="50" fill="white"/>
        </clipPath>
    </defs>
</svg>
