<svg width="68" height="68" viewBox="0 0 68 68" fill="none" xmlns="http://www.w3.org/2000/svg">
<path d="M27.7666 42.075L44.9083 31.1666L27.7666 20.2583V42.075ZM24.5791 58.0833V52.4166H11.1916C10.0583 52.4166 9.0902 52.0152 8.28742 51.2125C7.48464 50.4097 7.08325 49.4416 7.08325 48.3083V14.025C7.08325 12.8916 7.48464 11.9236 8.28742 11.1208C9.0902 10.318 10.0583 9.91663 11.1916 9.91663H56.8082C57.9416 9.91663 58.9096 10.318 59.7124 11.1208C60.5152 11.9236 60.9166 12.8916 60.9166 14.025V48.3083C60.9166 49.4416 60.5152 50.4097 59.7124 51.2125C58.9096 52.0152 57.9416 52.4166 56.8082 52.4166H43.4207V58.0833H24.5791ZM11.1916 49.2291H56.8082C57.0444 49.2291 57.2569 49.1347 57.4458 48.9458C57.6346 48.7569 57.7291 48.5444 57.7291 48.3083V14.025C57.7291 13.7888 57.6346 13.5763 57.4458 13.3875C57.2569 13.1986 57.0444 13.1041 56.8082 13.1041H11.1916C10.9555 13.1041 10.743 13.1986 10.5541 13.3875C10.3652 13.5763 10.2708 13.7888 10.2708 14.025V48.3083C10.2708 48.5444 10.3652 48.7569 10.5541 48.9458C10.743 49.1347 10.9555 49.2291 11.1916 49.2291ZM10.2708 49.2291V13.1041V49.2291Z" fill="white"/>
</svg>
