<svg width="200" height="47" viewBox="0 0 200 47" fill="none" xmlns="http://www.w3.org/2000/svg">
<path d="M7.03474 0H177.409V27.2193H0V7.03474C0 3.15191 3.15191 0 7.03474 0Z" fill="#19336B"/>
<path d="M199.837 21.9021V46.0467L177.413 27.2193V0L199.837 21.9021Z" fill="#9CC84B"/>
<path d="M177.413 27.2192L199.837 46.0466H21.106L0 27.2192H177.413Z" fill="#265946"/>
<path d="M10.7969 20L6.99965 7.26692H9.31634L11.3369 13.9905C11.4414 14.3389 11.5401 14.7105 11.633 15.1053C11.7259 15.4886 11.8188 15.9589 11.9117 16.5163C12.0162 15.9472 12.115 15.4769 12.2078 15.1053C12.3124 14.7221 12.4169 14.3505 12.5214 13.9905L14.542 7.26692H16.998L18.9663 13.9905C19.0708 14.3505 19.1695 14.7279 19.2624 15.1228C19.3669 15.5176 19.4715 15.9821 19.576 16.5163C19.6921 15.924 19.7966 15.4421 19.8895 15.0705C19.994 14.6873 20.0927 14.3389 20.1856 14.0254L22.241 7.26692H24.5055L20.6385 20H18.4786L15.7613 10.7332L12.9743 20H10.7969ZM28.4746 20.2264C27.6269 20.2264 26.8721 20.0348 26.2102 19.6516C25.5599 19.2568 25.0489 18.7226 24.6773 18.0491C24.3057 17.364 24.1199 16.5801 24.1199 15.6976C24.1199 14.8034 24.2999 14.0138 24.6599 13.3286C25.0199 12.6435 25.525 12.1093 26.1753 11.7261C26.8256 11.3313 27.5688 11.1339 28.4049 11.1339C29.2759 11.1339 30.0249 11.3197 30.652 11.6913C31.279 12.0513 31.7609 12.5564 32.0977 13.2067C32.4461 13.857 32.6203 14.635 32.6203 15.5408V16.1853L25.2347 16.2027L25.2696 14.8441H30.5126C30.5126 14.2518 30.321 13.7757 29.9378 13.4157C29.5662 13.0557 29.061 12.8757 28.4224 12.8757C27.923 12.8757 27.4992 12.9803 27.1508 13.1893C26.814 13.3983 26.5586 13.7118 26.3844 14.1299C26.2102 14.5479 26.1231 15.0589 26.1231 15.6627C26.1231 16.5917 26.3205 17.2943 26.7153 17.7704C27.1218 18.2465 27.7198 18.4846 28.5095 18.4846C29.0901 18.4846 29.5662 18.3743 29.9378 18.1536C30.321 17.933 30.5707 17.6194 30.6868 17.213H32.6551C32.4693 18.1536 32.0048 18.891 31.2616 19.4252C30.53 19.9594 29.601 20.2264 28.4746 20.2264ZM36.2894 20H34.321V7.04047H36.4461V12.6493C36.7248 12.1616 37.1313 11.79 37.6654 11.5345C38.1996 11.2674 38.7977 11.1339 39.4596 11.1339C40.2841 11.1339 40.9866 11.3313 41.5672 11.7261C42.1595 12.1093 42.6124 12.6493 42.9259 13.346C43.251 14.0428 43.4136 14.8499 43.4136 15.7673C43.4136 16.6382 43.2452 17.4104 42.9085 18.0839C42.5717 18.7575 42.0956 19.2858 41.4801 19.669C40.8647 20.0406 40.1447 20.2264 39.3202 20.2264C38.6815 20.2264 38.1009 20.0871 37.5783 19.8084C37.0674 19.5297 36.6842 19.1465 36.4287 18.6588L36.2894 20ZM36.4635 15.6627C36.4635 16.1737 36.5623 16.6324 36.7597 17.0388C36.9571 17.4336 37.2358 17.7414 37.5958 17.962C37.9674 18.171 38.397 18.2755 38.8848 18.2755C39.3841 18.2755 39.8137 18.1652 40.1737 17.9446C40.5337 17.724 40.8066 17.4162 40.9924 17.0214C41.1782 16.6266 41.2711 16.1737 41.2711 15.6627C41.2711 15.1518 41.1782 14.6989 40.9924 14.3041C40.8066 13.9093 40.5337 13.6015 40.1737 13.3809C39.8137 13.1486 39.3841 13.0325 38.8848 13.0325C38.397 13.0325 37.9674 13.1486 37.5958 13.3809C37.2358 13.6015 36.9571 13.9093 36.7597 14.3041C36.5623 14.6873 36.4635 15.1402 36.4635 15.6627ZM44.6876 10.8203C44.6876 10.0771 44.8792 9.42103 45.2624 8.85202C45.6457 8.28301 46.174 7.84174 46.8476 7.5282C47.5327 7.20305 48.3223 7.04047 49.2165 7.04047C50.0758 7.04047 50.819 7.19144 51.4461 7.49336C52.0848 7.79529 52.5783 8.22495 52.9267 8.78235C53.2867 9.33975 53.4783 10.0017 53.5015 10.7681H51.2719C51.2487 10.2223 51.0513 9.79844 50.6797 9.49651C50.3081 9.18298 49.8087 9.02621 49.1817 9.02621C48.4965 9.02621 47.9449 9.18298 47.5269 9.49651C47.1204 9.79844 46.9172 10.2165 46.9172 10.7507C46.9172 11.2035 47.0392 11.5635 47.283 11.8306C47.5385 12.0861 47.9333 12.2777 48.4675 12.4054L50.4706 12.8583C51.5622 13.0906 52.3751 13.4912 52.9093 14.0602C53.4434 14.6176 53.7105 15.3724 53.7105 16.3247C53.7105 17.1027 53.5189 17.7878 53.1357 18.3801C52.7525 18.9723 52.2067 19.431 51.4983 19.7561C50.8016 20.0697 49.9829 20.2264 49.0423 20.2264C48.1481 20.2264 47.3643 20.0755 46.6908 19.7736C46.0173 19.46 45.4889 19.0246 45.1057 18.4672C44.7341 17.9098 44.5367 17.2536 44.5134 16.4988H46.743C46.7547 17.033 46.9637 17.4569 47.3701 17.7704C47.7882 18.0723 48.3514 18.2233 49.0597 18.2233C49.8029 18.2233 50.3894 18.0723 50.819 17.7704C51.2603 17.4569 51.4809 17.0446 51.4809 16.5337C51.4809 16.0924 51.3648 15.744 51.1326 15.4886C50.9003 15.2215 50.5229 15.0357 50.0003 14.9312L47.9798 14.4783C46.8998 14.246 46.0811 13.828 45.5237 13.2241C44.9663 12.6087 44.6876 11.8074 44.6876 10.8203ZM54.5605 11.3952H59.9951V13.1719H54.5605V11.3952ZM58.3404 20H56.2153V8.71267H58.3404V20ZM63.8432 20.2264C62.9374 20.2264 62.2174 19.9826 61.6833 19.4949C61.1607 18.9955 60.8994 18.3452 60.8994 17.544C60.8994 16.7543 61.1723 16.1272 61.7181 15.6627C62.2755 15.1866 63.0651 14.9079 64.087 14.8266L66.665 14.6176V14.426C66.665 14.0312 66.5895 13.7176 66.4386 13.4854C66.2992 13.2415 66.096 13.0674 65.8289 12.9628C65.5618 12.8467 65.2483 12.7887 64.8883 12.7887C64.2612 12.7887 63.7793 12.9164 63.4426 13.1719C63.1058 13.4157 62.9374 13.7641 62.9374 14.217H61.1259C61.1259 13.5899 61.2826 13.0499 61.5962 12.597C61.9213 12.1325 62.3742 11.7726 62.9548 11.5171C63.5471 11.2616 64.2264 11.1339 64.9928 11.1339C65.7709 11.1339 66.4386 11.2732 66.996 11.5519C67.5534 11.819 67.983 12.2254 68.285 12.7712C68.5869 13.3054 68.7378 13.9731 68.7378 14.7744V20H66.874L66.7173 18.7284C66.5315 19.1697 66.1715 19.5297 65.6373 19.8084C65.1148 20.0871 64.5167 20.2264 63.8432 20.2264ZM64.5225 18.6239C65.1844 18.6239 65.707 18.4381 66.0902 18.0665C66.485 17.6949 66.6824 17.1782 66.6824 16.5163V16.0634L64.8883 16.2027C64.2264 16.2608 63.7561 16.4001 63.4774 16.6208C63.1987 16.8298 63.0593 17.1085 63.0593 17.4569C63.0593 17.8401 63.1871 18.1304 63.4426 18.3278C63.698 18.5252 64.058 18.6239 64.5225 18.6239ZM70.3204 15.6802C70.3204 14.7976 70.5004 14.0138 70.8603 13.3286C71.2319 12.6435 71.7371 12.1093 72.3758 11.7261C73.0261 11.3313 73.7751 11.1339 74.6228 11.1339C75.7956 11.1339 76.7537 11.4416 77.4969 12.0571C78.2517 12.6609 78.6872 13.4796 78.8033 14.5131H76.6782C76.5505 14.0254 76.3124 13.6596 75.964 13.4157C75.6273 13.1603 75.2034 13.0325 74.6925 13.0325C74.2512 13.0325 73.8564 13.1428 73.508 13.3635C73.1712 13.5725 72.9099 13.8744 72.7241 14.2692C72.5383 14.6641 72.4454 15.1344 72.4454 15.6802C72.4454 16.2259 72.5325 16.6962 72.7067 17.0911C72.8809 17.4859 73.1306 17.7936 73.4557 18.0143C73.7925 18.2233 74.1873 18.3278 74.6402 18.3278C75.1744 18.3278 75.6157 18.2001 75.964 17.9446C76.324 17.6891 76.5621 17.3233 76.6782 16.8472H78.8207C78.7278 17.5207 78.4897 18.113 78.1065 18.6239C77.7349 19.1233 77.253 19.5181 76.6608 19.8084C76.0685 20.0871 75.395 20.2264 74.6402 20.2264C73.7693 20.2264 73.0087 20.0406 72.3584 19.669C71.7081 19.2858 71.2029 18.7575 70.8429 18.0839C70.4946 17.3988 70.3204 16.5975 70.3204 15.6802ZM82.5449 20H80.4372V7.04047H82.5449V15.0008L85.8893 11.3952H88.5544L85.2796 14.8092L88.4847 20H86.0461L83.799 16.3769L82.5449 17.6833V20ZM91.2035 20.209C90.8203 20.209 90.4893 20.0755 90.2106 19.8084C89.9319 19.5413 89.7926 19.2162 89.7926 18.8329C89.7926 18.4497 89.9319 18.1246 90.2106 17.8575C90.4893 17.5788 90.8203 17.4394 91.2035 17.4394C91.5867 17.4394 91.9177 17.5788 92.1964 17.8575C92.4751 18.1246 92.6144 18.4497 92.6144 18.8329C92.6144 19.2162 92.4751 19.5413 92.1964 19.8084C91.9177 20.0755 91.5867 20.209 91.2035 20.209ZM96.629 20H94.3298L98.9283 7.26692H101.21L105.809 20H103.457L102.429 17.0562H97.6741L96.629 20ZM99.7818 11.0642L98.3186 15.175H101.785L100.322 11.0642C100.275 10.89 100.223 10.7158 100.165 10.5416C100.107 10.3674 100.072 10.2165 100.061 10.0888C100.037 10.2049 99.9966 10.3558 99.9386 10.5416C99.8921 10.7158 99.8399 10.89 99.7818 11.0642ZM106.195 15.6802C106.195 14.7976 106.375 14.0138 106.735 13.3286C107.107 12.6435 107.612 12.1093 108.251 11.7261C108.901 11.3313 109.65 11.1339 110.498 11.1339C111.671 11.1339 112.629 11.4416 113.372 12.0571C114.127 12.6609 114.562 13.4796 114.678 14.5131H112.553C112.426 14.0254 112.187 13.6596 111.839 13.4157C111.502 13.1603 111.078 13.0325 110.568 13.0325C110.126 13.0325 109.731 13.1428 109.383 13.3635C109.046 13.5725 108.785 13.8744 108.599 14.2692C108.413 14.6641 108.321 15.1344 108.321 15.6802C108.321 16.2259 108.408 16.6962 108.582 17.0911C108.756 17.4859 109.006 17.7936 109.331 18.0143C109.668 18.2233 110.062 18.3278 110.515 18.3278C111.049 18.3278 111.491 18.2001 111.839 17.9446C112.199 17.6891 112.437 17.3233 112.553 16.8472H114.696C114.603 17.5207 114.365 18.113 113.982 18.6239C113.61 19.1233 113.128 19.5181 112.536 19.8084C111.944 20.0871 111.27 20.2264 110.515 20.2264C109.644 20.2264 108.884 20.0406 108.233 19.669C107.583 19.2858 107.078 18.7575 106.718 18.0839C106.37 17.3988 106.195 16.5975 106.195 15.6802ZM118.838 20.2264C117.932 20.2264 117.212 19.9826 116.678 19.4949C116.156 18.9955 115.894 18.3452 115.894 17.544C115.894 16.7543 116.167 16.1272 116.713 15.6627C117.27 15.1866 118.06 14.9079 119.082 14.8266L121.66 14.6176V14.426C121.66 14.0312 121.584 13.7176 121.433 13.4854C121.294 13.2415 121.091 13.0674 120.824 12.9628C120.557 12.8467 120.243 12.7887 119.883 12.7887C119.256 12.7887 118.774 12.9164 118.437 13.1719C118.101 13.4157 117.932 13.7641 117.932 14.217H116.121C116.121 13.5899 116.277 13.0499 116.591 12.597C116.916 12.1325 117.369 11.7726 117.95 11.5171C118.542 11.2616 119.221 11.1339 119.988 11.1339C120.766 11.1339 121.433 11.2732 121.991 11.5519C122.548 11.819 122.978 12.2254 123.28 12.7712C123.582 13.3054 123.733 13.9731 123.733 14.7744V20H121.869L121.712 18.7284C121.526 19.1697 121.166 19.5297 120.632 19.8084C120.11 20.0871 119.512 20.2264 118.838 20.2264ZM119.517 18.6239C120.179 18.6239 120.702 18.4381 121.085 18.0665C121.48 17.6949 121.677 17.1782 121.677 16.5163V16.0634L119.883 16.2027C119.221 16.2608 118.751 16.4001 118.472 16.6208C118.194 16.8298 118.054 17.1085 118.054 17.4569C118.054 17.8401 118.182 18.1304 118.437 18.3278C118.693 18.5252 119.053 18.6239 119.517 18.6239ZM129.356 20.2264C128.52 20.2264 127.8 20.0406 127.196 19.669C126.604 19.2858 126.14 18.7575 125.803 18.0839C125.478 17.4104 125.315 16.6266 125.315 15.7324C125.315 14.8383 125.478 14.0486 125.803 13.3635C126.14 12.6667 126.622 12.1209 127.249 11.7261C127.876 11.3313 128.619 11.1339 129.478 11.1339C130.082 11.1339 130.634 11.2558 131.133 11.4997C131.632 11.7319 132.016 12.0629 132.283 12.4925V7.04047H134.39V20H132.439L132.3 18.6588C132.045 19.1465 131.65 19.5297 131.116 19.8084C130.593 20.0871 130.007 20.2264 129.356 20.2264ZM129.827 18.2755C130.326 18.2755 130.756 18.171 131.116 17.962C131.476 17.7414 131.754 17.4336 131.952 17.0388C132.161 16.6324 132.265 16.1737 132.265 15.6627C132.265 15.1402 132.161 14.6873 131.952 14.3041C131.754 13.9093 131.476 13.6015 131.116 13.3809C130.756 13.1486 130.326 13.0325 129.827 13.0325C129.339 13.0325 128.915 13.1486 128.555 13.3809C128.195 13.6015 127.916 13.9093 127.719 14.3041C127.533 14.6989 127.44 15.1518 127.44 15.6627C127.44 16.1737 127.533 16.6266 127.719 17.0214C127.916 17.4162 128.195 17.724 128.555 17.9446C128.915 18.1652 129.339 18.2755 129.827 18.2755ZM140.455 20.2264C139.607 20.2264 138.852 20.0348 138.19 19.6516C137.54 19.2568 137.029 18.7226 136.657 18.0491C136.286 17.364 136.1 16.5801 136.1 15.6976C136.1 14.8034 136.28 14.0138 136.64 13.3286C137 12.6435 137.505 12.1093 138.155 11.7261C138.806 11.3313 139.549 11.1339 140.385 11.1339C141.256 11.1339 142.005 11.3197 142.632 11.6913C143.259 12.0513 143.741 12.5564 144.078 13.2067C144.426 13.857 144.6 14.635 144.6 15.5408V16.1853L137.215 16.2027L137.249 14.8441H142.493C142.493 14.2518 142.301 13.7757 141.918 13.4157C141.546 13.0557 141.041 12.8757 140.402 12.8757C139.903 12.8757 139.479 12.9803 139.131 13.1893C138.794 13.3983 138.538 13.7118 138.364 14.1299C138.19 14.5479 138.103 15.0589 138.103 15.6627C138.103 16.5917 138.3 17.2943 138.695 17.7704C139.102 18.2465 139.7 18.4846 140.489 18.4846C141.07 18.4846 141.546 18.3743 141.918 18.1536C142.301 17.933 142.551 17.6194 142.667 17.213H144.635C144.449 18.1536 143.985 18.891 143.242 19.4252C142.51 19.9594 141.581 20.2264 140.455 20.2264ZM148.426 20H146.301V11.3952H148.252L148.513 12.928L148.269 12.719C148.443 12.3009 148.763 11.9351 149.227 11.6216C149.692 11.2964 150.272 11.1339 150.969 11.1339C151.724 11.1339 152.339 11.3313 152.816 11.7261C153.303 12.1209 153.64 12.6435 153.826 13.2938H153.477C153.605 12.6435 153.93 12.1209 154.453 11.7261C154.987 11.3313 155.632 11.1339 156.386 11.1339C157.431 11.1339 158.233 11.43 158.79 12.0222C159.348 12.6029 159.626 13.3867 159.626 14.3738V20H157.519V14.9312C157.519 14.3157 157.362 13.8512 157.048 13.5377C156.746 13.2125 156.34 13.0499 155.829 13.0499C155.504 13.0499 155.202 13.1254 154.923 13.2764C154.656 13.4273 154.441 13.6538 154.279 13.9557C154.116 14.2576 154.035 14.6466 154.035 15.1228V20H151.91V14.9137C151.91 14.3099 151.759 13.8512 151.457 13.5377C151.155 13.2241 150.754 13.0674 150.255 13.0674C149.918 13.0674 149.61 13.1428 149.332 13.2938C149.053 13.4331 148.832 13.6596 148.67 13.9731C148.507 14.275 148.426 14.6583 148.426 15.1228V20ZM162.814 11.3952L165.618 19.3381L164.469 21.5154L160.567 11.3952H162.814ZM160.793 23.9889V22.2296H162.065C162.344 22.2296 162.587 22.1948 162.796 22.1251C163.005 22.067 163.191 21.9509 163.354 21.7767C163.528 21.6025 163.673 21.347 163.789 21.0103L167.36 11.3952H169.555L165.34 21.9161C165.026 22.7057 164.631 23.2805 164.155 23.6405C163.679 24.0005 163.087 24.1805 162.378 24.1805C162.076 24.1805 161.792 24.1631 161.525 24.1282C161.269 24.105 161.026 24.0586 160.793 23.9889Z" fill="white"/>
</svg>

